<svg xmlns="http://www.w3.org/2000/svg" width="34" height="33" viewBox="0 0 34 33" fill="none"><g clip-path="url(#clip0_200_81)"><path d="M7.83933 20.6333L23.0693 11.8403L15.8389 9.90289C15.71 9.87075 15.5889 9.81328 15.4825 9.73383C15.3761 9.65438 15.2866 9.55453 15.2192 9.44012C15.1518 9.3257 15.1079 9.19901 15.09 9.06744C15.0721 8.93587 15.0806 8.80205 15.1149 8.67379C15.1493 8.54553 15.2089 8.4254 15.2902 8.32041C15.3715 8.21541 15.4728 8.12766 15.5884 8.06227C15.704 7.99688 15.8314 7.95516 15.9633 7.93955C16.0951 7.92393 16.2288 7.93474 16.3564 7.97133L25.9186 10.5335C26.1747 10.6022 26.3931 10.7698 26.5257 10.9994C26.6583 11.229 26.6942 11.5019 26.6256 11.7581L24.0634 21.3202C23.9912 21.5723 23.8228 21.7859 23.5946 21.915C23.3664 22.0441 23.0966 22.0785 22.8433 22.0106C22.5901 21.9427 22.3736 21.7781 22.2405 21.5522C22.1074 21.3263 22.0684 21.0571 22.1319 20.8027L24.0693 13.5723L8.83933 22.3653C8.60964 22.4979 8.33669 22.5339 8.08051 22.4652C7.82433 22.3966 7.60591 22.229 7.4733 21.9993C7.34069 21.7696 7.30476 21.4966 7.3734 21.2405C7.44204 20.9843 7.60964 20.7659 7.83933 20.6333Z" fill="white"></path></g><defs><clipPath id="clip0_200_81"><rect width="24" height="24" fill="white" transform="matrix(-0.866025 0.5 0.5 0.866025 21.3945 0.107422)"></rect></clipPath></defs></svg>