<svg xmlns="http://www.w3.org/2000/svg" width="34" height="34" viewBox="0 0 34 34" fill="none"><g clip-path="url(#clip0_1_6877)"><path d="M7.83933 20.9047L23.0693 12.1117L15.8389 10.1744C15.71 10.1422 15.5889 10.0848 15.4825 10.0053C15.3761 9.92586 15.2866 9.82601 15.2192 9.7116C15.1518 9.59719 15.1079 9.4705 15.09 9.33893C15.0721 9.20736 15.0806 9.07354 15.1149 8.94528C15.1493 8.81702 15.2089 8.69688 15.2902 8.59189C15.3715 8.4869 15.4728 8.39915 15.5884 8.33376C15.704 8.26837 15.8314 8.22665 15.9633 8.21103C16.0951 8.19542 16.2288 8.20622 16.3564 8.24281L25.9186 10.805C26.1747 10.8737 26.3931 11.0412 26.5257 11.2709C26.6583 11.5005 26.6942 11.7734 26.6256 12.0295L24.0634 21.5917C23.9912 21.8438 23.8228 22.0574 23.5946 22.1865C23.3664 22.3156 23.0966 22.35 22.8433 22.2821C22.5901 22.2142 22.3736 22.0496 22.2405 21.8237C22.1074 21.5977 22.0684 21.3286 22.1319 21.0742L24.0693 13.8438L8.83933 22.6368C8.60964 22.7694 8.33669 22.8053 8.08051 22.7367C7.82433 22.6681 7.60591 22.5005 7.4733 22.2708C7.34069 22.0411 7.30476 21.7681 7.3734 21.512C7.44204 21.2558 7.60964 21.0374 7.83933 20.9047Z" fill="white"></path></g><defs><clipPath id="clip0_1_6877"><rect width="24" height="24" fill="white" transform="matrix(-0.866025 0.5 0.5 0.866025 21.3945 0.378906)"></rect></clipPath></defs></svg>