<svg xmlns="http://www.w3.org/2000/svg" width="33" height="34" viewBox="0 0 33 34" fill="none"><g clip-path="url(#clip0_1_462)"><path d="M7.22995 21.1333L22.4599 12.3403L15.2295 10.4029C15.1007 10.3708 14.9795 10.3133 14.8731 10.2338C14.7667 10.1544 14.6772 10.0545 14.6098 9.94012C14.5425 9.8257 14.4985 9.69901 14.4806 9.56744C14.4627 9.43587 14.4712 9.30205 14.5056 9.17379C14.5399 9.04553 14.5995 8.9254 14.6808 8.82041C14.7621 8.71541 14.8635 8.62766 14.979 8.56227C15.0946 8.49688 15.222 8.45516 15.3539 8.43955C15.4858 8.42393 15.6194 8.43474 15.7471 8.47133L25.3092 11.0335C25.5654 11.1022 25.7837 11.2698 25.9163 11.4994C26.0489 11.729 26.0848 12.0019 26.0162 12.2581L23.4541 21.8202C23.3818 22.0723 23.2134 22.2859 22.9852 22.415C22.757 22.5441 22.4872 22.5785 22.234 22.5106C21.9807 22.4427 21.7642 22.2781 21.6311 22.0522C21.4981 21.8263 21.4591 21.5571 21.5225 21.3027L23.4599 14.0723L8.22995 22.8653C8.00027 22.9979 7.72731 23.0339 7.47113 22.9652C7.21495 22.8966 6.99654 22.729 6.86393 22.4993C6.73132 22.2696 6.69538 21.9966 6.76403 21.7405C6.83267 21.4843 7.00027 21.2659 7.22995 21.1333Z" fill="#ED7D31"></path></g><defs><clipPath id="clip0_1_462"><rect width="24" height="24" fill="white" transform="matrix(-0.866025 0.5 0.5 0.866025 20.7852 0.607422)"></rect></clipPath></defs></svg>